<?xml version="1.0" encoding="utf-8"?>
<svg version="1.1" xmlns="http://www.w3.org/2000/svg" width="167.086px" height="242.668px">
<path id="path3112" fill="#FFFFFF" stroke="#000000" stroke-width="0.5" d="M166.836,235.547c0,3.777-3.086,6.871-6.869,6.871H7.112
	c-3.774,0-6.861-3.094-6.861-6.871V7.119c0-3.777,3.087-6.869,6.861-6.869h152.855c3.783,0,6.869,3.092,6.869,6.869V235.547z"/>
<g id="g3126">
	<path id="path3128" d="M156.223,212.027v2.844h-0.688c-0.018-0.752-0.094-1.307-0.23-1.658c-0.137-0.354-0.344-0.529-0.617-0.529
		c-0.348,0-0.591,0.299-0.729,0.898c-0.138,0.598-0.205,1.721-0.205,3.367v15.984h1.188v1.469h-4.313v-1.469h1.031v-16.08
		c0-1.957,0.219-3.385,0.658-4.287c0.438-0.9,1.141-1.352,2.105-1.352c0.299,0,0.596,0.068,0.893,0.203
		C155.615,211.554,155.916,211.758,156.223,212.027z"/>
	<path id="path3130" d="M145.408,216.027c1.354,0,2.415,0.831,3.184,2.49s1.154,3.947,1.154,6.863s-0.386,5.205-1.154,6.869
		s-1.83,2.496-3.184,2.496c-1.361,0-2.426-0.83-3.195-2.49c-0.77-1.658-1.154-3.951-1.154-6.875c0-2.916,0.387-5.205,1.16-6.863
		C142.992,216.857,144.055,216.027,145.408,216.027z M145.408,217.496c-0.691,0-1.204,0.648-1.537,1.943
		c-0.333,1.297-0.5,3.277-0.5,5.941c0,2.672,0.167,4.656,0.5,5.953c0.333,1.295,0.846,1.943,1.537,1.943
		c0.684,0,1.191-0.654,1.525-1.963c0.334-1.307,0.5-3.285,0.5-5.934c0-2.641-0.166-4.615-0.5-5.922
		C146.6,218.15,146.092,217.496,145.408,217.496z"/>
	<path id="path3132" d="M140.063,216.371v1.469h-1.031v15.094h1.031v1.469h-4.125v-1.469h1.031v-6.576l-3.412,6.576h0.859v1.469
		h-2.998v-1.469h1.076l2.889-5.563l-3.939-9.531h-0.787v-1.469h2.729l3.584,8.756v-7.287h-1.031v-1.469H140.063z"/>
	<path id="path3134" d="M130.463,216.371v1.469h-1.031v15.094h1.031v1.469h-7.219v-4.25h0.75v2.594h3.375v-5.781h-2.094v2.281h-0.75
		v-6.219h0.75v2.281h2.094v-7.281h-3.469v2.594h-0.75v-4.25H130.463z"/>
	<path id="path3136" d="M116.676,225.164c-0.313-0.104-0.579-0.34-0.799-0.709s-0.41-0.902-0.57-1.6l-1.166-5.016h-0.834v-1.469
		h2.648l1.293,5.447c0.254,1.125,0.468,1.841,0.643,2.15s0.416,0.465,0.725,0.465h0.336v-6.594h-1.031v-1.469h4.125v1.469h-1.031
		v15.094h1.031v1.469h-4.598c-0.938,0-1.661-0.422-2.17-1.264s-0.764-2.037-0.764-3.584c0-1.258,0.182-2.252,0.541-2.98
		C115.416,225.844,115.955,225.375,116.676,225.164z M118.951,225.871h-0.707c-0.51,0-0.904,0.307-1.186,0.92
		c-0.279,0.611-0.42,1.486-0.42,2.623s0.14,2.009,0.42,2.613s0.676,0.906,1.186,0.906h0.707V225.871z"/>
</g>
<g id="g3114">
	<path id="path3116" d="M10.325,30.133v-2.844h0.688c0.017,0.753,0.093,1.307,0.229,1.658c0.138,0.354,0.344,0.529,0.619,0.529
		c0.347,0,0.589-0.299,0.727-0.897s0.206-1.722,0.206-3.368V9.226h-1.188V7.758h4.313v1.469h-1.031v16.081
		c0,1.956-0.219,3.384-0.657,4.286c-0.438,0.901-1.141,1.352-2.107,1.352c-0.297,0-0.595-0.068-0.893-0.203
		S10.631,30.403,10.325,30.133z"/>
	<path id="path3118" d="M21.139,26.133c-1.354,0-2.415-0.83-3.184-2.489s-1.154-3.947-1.154-6.864c0-2.916,0.385-5.205,1.154-6.869
		s1.83-2.496,3.184-2.496c1.361,0,2.427,0.83,3.196,2.49c0.769,1.659,1.153,3.951,1.153,6.875c0,2.917-0.387,5.205-1.16,6.864
		S22.492,26.133,21.139,26.133z M21.139,24.664c0.691,0,1.204-0.648,1.537-1.943c0.333-1.297,0.5-3.277,0.5-5.941
		c0-2.672-0.167-4.656-0.5-5.952s-0.846-1.944-1.537-1.944c-0.684,0-1.192,0.654-1.525,1.963c-0.333,1.308-0.5,3.285-0.5,5.934
		c0,2.641,0.167,4.615,0.5,5.923S20.455,24.664,21.139,24.664z"/>
	<path id="path3120" d="M26.485,25.789V24.32h1.031V9.226h-1.031V7.758h4.125v1.469h-1.031v6.576l3.412-6.576h-0.858V7.758h2.997
		v1.469h-1.075l-2.889,5.563l3.939,9.531h0.786v1.469h-2.728l-3.585-8.756v7.287h1.031v1.469H26.485z"/>
	<path id="path3122" d="M36.084,25.789V24.32h1.031V9.226h-1.031V7.758h7.219v4.25h-0.75V9.414h-3.375v5.781h2.094v-2.281h0.75
		v6.219h-0.75v-2.281h-2.094v7.281h3.469v-2.594h0.75v4.25H36.084z"/>
	<path id="path3124" d="M49.871,16.996c0.313,0.104,0.579,0.34,0.799,0.709s0.41,0.902,0.57,1.601l1.167,5.015h0.834v1.469h-2.649
		l-1.293-5.447c-0.253-1.125-0.467-1.842-0.642-2.15c-0.175-0.311-0.417-0.465-0.726-0.465h-0.336v6.594h1.031v1.469h-4.125V24.32
		h1.031V9.226h-1.031V7.758H49.1c0.938,0,1.661,0.422,2.17,1.264s0.764,2.037,0.764,3.585c0,1.258-0.181,2.251-0.541,2.98
		S50.592,16.786,49.871,16.996z M47.596,16.289h0.707c0.511,0,0.906-0.307,1.186-0.919s0.42-1.487,0.42-2.624
		s-0.14-2.008-0.42-2.612s-0.675-0.907-1.186-0.907h-0.707V16.289z"/>
</g>
<g id="g2465" transform="translate(181.6941,-10.0965)">
	<g id="joker" transform="translate(-1094.1,-924.2)">
		<path id="path576" fill="#E6180A" d="M1013.546,1130.729l-0.715,1.387l0.738,4.821l1.923-0.334l3.812-2.59l-4.237-4.049
			L1013.546,1130.729z"/>
		<path fill="#E6180A" d="M1049.704,999.995c-1.864-2.992-2.79-4.794-2.595-5.974c0.178-1.074,1.46-2.443-1.219-4.572
			c-1.589-1.263-8.359,0.63-3.714,6.247c4.325,0.542,3.748-0.388,2.81,4.232c-6.495,6.667-10.146,4.545-16.175,3.011
			c-7.416-1.251-9.035,3.314-12.299,0.448c-2.854-9.7,1.77-5.97,3.246-5.374c3.336-1.421,2.516-0.402,3.38-4.367
			c-1.727-2.762-0.858-2.099-3.614-2.854c-2.274,1.058-1.458,0.315-3.546,3.459c-4.942,2.154-7.675,2.983-7.16,11.823
			c2.478,5.253,2.118,3.953,2.074,6.014c-3.938,6.132-2.854,3.598-4.919,10.918c-2.715,2.347-2.145,1.206-2.309,4.835
			c-0.805,2.018-5.62-0.998-5.421,4.906c-7.67-4.604-9.635-2.597-20.243,2.317c-5.583,1.491-3.6,1.268-8.699,1.142
			c-0.709,0.355-1.976-0.025,3.548,5.341c2.064-0.127,1.009,0.087,4.784-1.04c0.678,0.441,4.228,1.348,0.201,5.374
			c-2.035,0.048-4.251-0.759-8.428,6.639c-0.602,1.065-0.761,2.449-1.242,3.976c9.193-1.691,6.836-0.869,10.842-3.494
			c3.62-7.982,6.047-4.05,6.857-1.275c-1.924,3.316-0.68,2.532-5.32,3.19c-4.044,4.021-2.722,1.771-5.653,10.28
			c1.935,1.833,8.186-0.592,12.514-3.596c0.499-2.63,0.961-6.299,6.089-3.997c0.879,2.394,0.993,1.356-0.569,4.367
			c-5.321,1.585-4.677,0.496-7.779,10.313c0,4.702-0.672,3.933,2.594,3.426c6.363-3.031,6.239-2.558,9.735-6.449
			c-2.031-8.746,4.65-5.876,4.751-5.845c1.291,2.073,2.6,2.675-3.579,5.946c0.156,10.848-0.108,8.541,0.87,11.486
			c1.475,0.399,2.286,1.964,9.703-7.59c-0.062-5.566-0.526-6.97,3.914-7.222c4.185,2.515,0.461,5.02-1.573,6.616
			c0.209,3.19,0.028,7.592,2.677,9.137c6.786-5.764,5.265-4.097,7.162-7.524c-1.162-3.803-2.656-5.872,1.84-7.322
			c3.262,2.646,3.126,1.808,1.036,6.785c1.849,6.329,0.819,4.245,4.317,9.238c0.347-0.008,2.997,1.055,4.75-8.734
			c-2.226-3.658-2-3.319-0.501-5.711c2.255-0.04,1.563-0.461,2.878,1.848c-1.304,4.257-2.028,7.363,8.063,12.094
			c1.152-0.947,1.25,2.027-6.725-17.87c-0.804-7.42-0.453-4.896-1.507-11.153c-3.326-5.372-1.478-3.493-8.463-8.129
			c0.078-7.092-0.108-4.997,0.735-9.44c7.776-5.291,6.755-5.25,11.543-1.713c1.741,4.504,1.825,3.95-0.67,3.998
			c-2.382,1.343-1.746,0.424-2.608,3.932c2.601,4.543,3.748,3.396,6.121,2.384c1.808-4.665-0.809-3.423,1.707-6.986
			c2.356-7.466-3.575-9.496-1.026-15.617c2.446-3.146,3.812-4.804,5.075-6.284
			C1051.774,1006.897,1050.394,1003.753,1049.704,999.995z M1029.619,1027.066c-7.897,5.045-5.025,3.93-12.587,5.262l-4.802-0.992
			l-2.258-3.224c0.18-7.174-0.479-4.581,2.576-11.37l3.229-4.787l5.235-2.92c0,0,1.595-0.177,2.23-0.273l3.079-0.204l2.187,1.749
			c-0.551,3.11-0.505,2.312-0.28,3.672c3.215,0.3,1.955-0.052,5.541,1.688l0.445,2.825
			C1032.627,1023.828,1033.621,1021.86,1029.619,1027.066z"/>
		<polygon id="rect580" fill="#E6180A" points="1028.332,1002.726 1028.719,1003.182 1022.193,1009.035 1021.807,1008.578 		"/>
		<path id="path582" fill="#E6180A" d="M966.241,1039.519l2.958,0.669l2.082,3.555l-2.292,11.083l-5.955,11.125l-9.124,9.411h-8.039
			l-1.292-1.758l10.247-9.284l8.208-13.467L966.241,1039.519z"/>
		<path id="path584" fill="#E6180A" d="M1018.634,1082.101l1.286-0.969l3.695-0.914l1.179,1.075l1.981,7.529l0.697,4.085
			l-0.536,7.635l-3.053,12.423l-2.25,5.483l-3.642,4.732l-4.446,3.064l0.321-2.15l3.75-6.184l2.196-6.506l1.98-8.765l0.697-6.237
			l-0.964-6.99l-2.785-5.001L1018.634,1082.101z"/>
		<g id="g596" transform="translate(-924.12,211.4)">
			<path id="path598" fill="#E6180A" d="M1914.708,769.383l3.742,0.328l2.059,4.692l-1.576,3.416l-5.176-0.638l-0.832-4.844
				L1914.708,769.383z"/>
			<path id="path600" fill="#E6180A" d="M1926.361,764.67l3.075-1.505l1.227,0.428l0.442,1.594v1.493l-0.871,2.517l-3.03,2.735
				l-5.318,1.22l-0.382-1.473l1.893-0.593l2.593-2.549L1926.361,764.67z"/>
			<path id="path602" fill="#FF009C" d="M1889.74,766.781c0,1.185-0.901,2.145-2.013,2.145s-2.012-0.96-2.012-2.145
				s0.9-2.145,2.012-2.145S1889.74,765.596,1889.74,766.781z"/>
			<path id="path604" fill="#00FF0A" d="M1894.443,777.655c0,1.1-0.938,1.991-2.095,1.991s-2.095-0.892-2.095-1.991
				s0.938-1.99,2.095-1.99S1894.443,776.555,1894.443,777.655z"/>
			<path id="path606" fill="#FF9E00" d="M1904.953,793.912c0,1.146-1.018,2.076-2.272,2.076c-1.256,0-2.272-0.93-2.272-2.076
				s1.017-2.075,2.272-2.075C1903.935,791.837,1904.953,792.765,1904.953,793.912z"/>
			<path id="path608" fill="#0072FF" d="M1913.379,799.497c0,1.263-0.997,2.286-2.226,2.286c-1.229,0-2.227-1.023-2.227-2.286
				s0.997-2.286,2.227-2.286C1912.382,797.211,1913.379,798.234,1913.379,799.497z"/>
			<path id="path610" fill="#FFFF00" d="M1922.268,802.313c0,1.393-1.011,2.521-2.256,2.521c-1.246,0-2.256-1.129-2.256-2.521
				s1.01-2.521,2.256-2.521C1921.258,799.793,1922.268,800.921,1922.268,802.313z"/>
			<path id="path612" fill="#E6180A" d="M1898.959,787.045c0.326,0.537,0.025,1.314-0.673,1.738
				c-0.697,0.424-1.528,0.332-1.854-0.204c-0.326-0.537-0.025-1.314,0.672-1.738
				C1897.802,786.417,1898.632,786.509,1898.959,787.045z"/>
			<path id="path614" fill="#E6180A" d="M1904.365,783.437c0,0.501-0.351,0.906-0.783,0.906s-0.784-0.405-0.784-0.906
				s0.352-0.907,0.784-0.907S1904.365,782.936,1904.365,783.437z"/>
			<path id="path616" fill="#E6180A" d="M1893.247,792.121c0.094,0.107,0.02,0.324-0.191,0.564s-0.526,0.464-0.82,0.584
				c-0.293,0.12-0.517,0.115-0.582-0.013c-0.094-0.107-0.021-0.324,0.191-0.564c0.211-0.24,0.526-0.465,0.819-0.584
				S1893.181,791.994,1893.247,792.121z"/>
			<polygon id="rect618" fill="#E6180A" points="1876.599,803.064 1880.288,799.623 1882.01,801.364 1878.322,804.804 			"/>
			<polygon id="rect620" fill="#E6180A" points="1869.022,808.731 1874.398,804.377 1875.931,806.153 1870.555,810.508 			"/>
			<path id="path622" fill="#E6180A" d="M1867.327,811.662c0.18,0.202,0.193,0.522,0.035,0.833s-0.461,0.561-0.79,0.65
				c-0.328,0.09-0.628,0.006-0.78-0.22c-0.179-0.202-0.192-0.522-0.034-0.833c0.157-0.311,0.461-0.561,0.789-0.65
				S1867.175,811.436,1867.327,811.662z"/>
			<path id="path624" fill="#E6180A" d="M1866.776,868.078l1.42-0.512l2.051,1.097l1.854,1.736l0.02,1.842l-3.961,2.068
				l-1.985-1.322l0.197-3.957L1866.776,868.078z"/>
			<path id="path626" fill="#E6180A" d="M1888.171,808.828c-1.533,20.332-2.207,16.445,1.356,20.594
				c-3.37,12.986-1.911,10.62-6.126,12.536c-9.629-3.641-7.926-2.173-8.415-6.306c3.76-18.445,2.136-12.39,6.786-25.617
				C1882.781,808.394,1886.664,806.542,1888.171,808.828z"/>
			<path id="path628" fill="#E6180A" d="M1925.29,883.05l12.539-2.884l3.251-1.398l2.365-0.226l0.618,1.144l0.056,5.652
				l-0.999,0.947l-17.704,1.397l-1.814-0.324l-0.126-2.417L1925.29,883.05z"/>
			<g>
				<path d="M1950.105,807.145l2.905,1.563l2.324,1.742C1955.189,807.777,1952.499,806.436,1950.105,807.145z"/>
				<path d="M1948.556,809.285h-0.969c0.184,2.553,3.573,4.139,5.811,4.472c-0.004-1.266-0.059-3.458-1.023-4.391
					C1951.434,808.457,1948.866,807.383,1948.556,809.285z M1948.922,809.423c0.159-0.289,1.051-1.288,2.058-0.339
					c-0.336,0.088-1.48,0.469-1.68,2.146C1948.758,811.116,1948.663,809.969,1948.922,809.423z M1952.737,812.921
					c-0.148,0.149-1.696,0.019-3.014-1.322c1.873-0.377,1.869-1.788,1.867-1.981
					C1952.523,810.302,1953.125,812.531,1952.737,812.921z"/>
				<path d="M1952.429,802.479c0.144-1.132,0.799-2.563,0.388-3.694c-1.424-3.923-8.405-1.365-10.652-0.041
					c-5.451,3.212-9.108,10.067-8.214,16.376c0.123,0.871-0.115,1.659,0.221,2.527c1.505,3.891,6.783,3.509,10.124,3.144
					c7.419-0.811,16.003-9.136,13.75-16.95C1955.7,802.28,1954.139,802.479,1952.429,802.479z M1942.088,801.058
					c0.372-0.375,0.582-0.379,1.602,0.22c-0.43-0.062-1.518,0.583-1.565,1.327c0,0-0.237-0.515-0.271-0.783
					C1941.807,801.453,1941.677,801.47,1942.088,801.058z M1944.026,801.682c1.26,1.442,1.871,6.681-1.737,1.425
					C1942.839,803.291,1943.985,802.719,1944.026,801.682z M1955.386,812.784c-6.338,8.533-20.963,11.618-20.969,1.556
					c-0.003-3.771,0.955-6.359,2.962-9.527c5.23-8.258,2.355-0.25,7.109,1.167l-2.131,2.139c2.017-0.348,4.632-1.544,5.507-3.5
					c0.897-2.007-0.955-5.444-3.183-5.639c0.508,1.834,4.193,5.25,0.774,6.416c0-2.404-0.387-4.984-3.292-5.055
					c0.849-2.831,8.132-3.845,9.928-1.489c0.91,1.193-0.895,2.957,0.229,3.893c1.613,1.344,4.755-0.351,5.614,2.651
					C1958.679,807.993,1956.833,810.836,1955.386,812.784z"/>
				<path d="M1945.844,814.534c-1.883-0.285-3.809-2.311-5.035-3.694c-0.443-0.5-0.969-1.819-1.743-1.819
					c-2.185,0-1.792,4.413-0.872,5.471c1.615,1.857,5.521,1.412,7.65,1.016l-1.355,2.139c3.451-0.541,2.13-3.683,1.162-5.833
					C1944.682,812.74,1945.564,813.488,1945.844,814.534z M1939.066,809.868l4.454,5.055
					C1941.061,814.923,1936.969,812.978,1939.066,809.868z"/>
				<path d="M1923.379,766.897l0.774,1.361C1925.42,767.481,1924.734,766.252,1923.379,766.897z"/>
				<path d="M1936.354,810.645l2.324-3.11C1937.063,807.643,1935.962,809.026,1936.354,810.645z"/>
				<path d="M1945.263,811.229c-0.097-1.267-1.233-1.75-2.324-2.14C1942.746,810.385,1944.101,811.102,1945.263,811.229z"/>
				<path d="M1926.671,825.811c1.162,5.017,6.964,7.62,11.427,8.703c1.746,0.424,4.714,0.748,6.004-0.731
					c-3.956-1.028-7.567-0.983-11.232-3.229C1930.933,829.367,1928.896,826.006,1926.671,825.811z"/>
				<path d="M1939.519,826.251c0.782-0.86-3.589-2.164-4.184-1.6c-0.457,0.433,0.328,1.006,0.632,1.184
					C1936.785,826.313,1938.68,827.174,1939.519,826.251z"/>
				<path d="M1973.798,787.704c-0.553-1.419-1.793-2.534-2.314-3.879c-0.264-0.68,0.441-1.448,0.484-2.148
					c0.152-2.477-1.335-4.828-4.046-4.591c-2.807,0.246-4.727,3.674-3.151,6.146c1.027,1.613,2.915,2.078,4.7,1.75
					c-0.046,5.462-6.149,8.419-11.039,7.693c-2.807-0.417-4.97-1.983-7.94-1.853c-3.121,0.137-7.465,2.215-8.626,1.548
					c-2.617-1.505-1.486-4.622-1.252-6.806c6.956,4.905,9.355-5.076,4.262-6.325c-1.482-0.364-3.229,0.229-4.136,1.473
					c-0.419,0.575-0.443,1.495-1.001,1.948c-1.102,0.894-2.905,1.001-4.121,1.969c-2.586,2.058-3.438,6.186-3.106,9.296
					c0.484,4.538,2.661,4.96,2.057,6.578c-0.768,2.054-2.539,3.877-3.482,5.899c-0.729,1.561-0.621,3.523-1.404,4.985
					c-0.783,1.464-3.033,1.005-2.24,5.286c-2.712-0.64-6.126,1.309-5.423,4.278c-1.172-0.815-2.668-1.962-4.067-2.309
					c-7.317-1.81-15.312,6.283-21.885,6.001c-0.969-0.042-2.379-0.554-3.238,0.006c-1.477,0.961,0.716,2.296,1.107,3.021
					c0.971,1.797-5.354-1.381-6.004-2.699c-0.669-1.355,1.344-16.856,1.144-19.385c-0.057-0.71-0.478-1.412-0.138-2.106
					c0.492-1.003,1.472-1.783,2.023-2.788c0.759-1.381,1.018-2.954,2.139-4.124c1.229-1.284,3.614-2.446,4.456-4.06
					c0.377-0.724-0.314-1.39-0.02-2.048c0.323-0.72,0.231,0.063,7.05-5.339c0.574-0.455,1.441-1.828,2.229-1.046
					c1.53,1.516,0.569,7.159-1.509,7.901c-1.104,0.395-2.187-1.176-3.622-0.583c-1.017,0.42-1.54,1.468-1.549,2.528
					c-0.031,3.766,6.101,3.14,5.035-0.584c4.592-1.26,3.638-7.188,4.688-10.693c0.032-0.107,3.011-5.878,4.461-3.845
					c0.736,1.033-0.106,4.428-0.047,5.789c0.147,3.358,1.173,6.42-0.116,9.722c-0.289,0.739-0.554,1.944-1.28,2.354
					c-0.515,0.55-2.149,0.233-3.178,0.714c-1.92,1.368-1.481,5.747,2.337,4.394c2.058-0.729,0.95-2.126,1.934-3.424
					c1.025-1.353,2.662-2.189,3.596-3.647c2.113-3.299,1.037-7.192,0.388-10.694c-0.19-1.027-0.646-5.015,1.154-5.015
					c0.682,0,0.974,1.009,1.16,1.515c2.041,5.545,3.903,13.437,0.522,18.277c-0.816,1.168-2.601,0.593-3.225,2.143
					c-0.674,1.673,0.128,3.565,1.938,3.977c1.938,0.44,3.368-1.159,3.284-3.006c-0.031-0.685-0.576-1.507-0.238-2.139
					c0.544-1.016,1.579-1.668,2.109-2.723c1.72-3.415,1.993-8.271,0.713-11.86c-1.014-2.841-5.682-6.222-4.726-9.333
					c0.792-2.578,3.808-2.121,5.827-3.188c4.574-2.417,5.647-5.742,4.073-10.194c-0.11-0.778,0.843-1.537,0.376-2.337
					c-0.418-0.718-1.352-0.613-1.784,0c-0.87,1.234,0.713,2.102-0.856,3.313c-0.979,0.756-2.25,0.477-3.355,0.877
					c-0.514,0.186-0.879,0.753-1.406,0.857c-0.831,0.165-1.567-0.461-2.365,0.174c-1.252,0.997-0.874,3.847-3.201,4.083
					c-5.34,0.542-1.943-5.827-10.846-7.928c-3.166-0.747-6.734,0.119-8.721,2.903c-1.153,1.617-1.684,5.564-4.255,5.476
					c-1.004-0.035-3.54-0.835-3.943-1.855c-0.499-1.261,0.337-2.495-1.112-3.457c-1.358-0.901-3.402-0.285-3.778,1.363
					c-0.354,1.551,0.313,3.266,2.055,3.457c0.703,0.077,1.448-0.359,2.098-0.025c1.755,0.903,3.072,2.528,5.263,2.113
					c2.853-0.54,3.677-4.384,5.81-6.074c3.473-2.753,12.35,1.253,12.719,3.443c0.216,1.281-2.456,0.459-3.035,0.39
					c-3.229-0.386-6.972,0.526-8.669,3.503c-1.228,2.152-0.315,4.471-3.339,5.383c-4.531,1.367-2.527-2.178-4.846-2.925
					c-2.287-0.737-4.194,1.043-3.513,3.179c1.007,3.161,3.484,0.824,5.452,1.077c1.903,0.245,3.678,0.808,5.415-0.575
					c2.185-1.738,1.748-4.396,4.85-5.491c1.282-0.453,5.289-1.54,5.878,0.325c0.465,1.474-0.714,1.329-8.009,7.505
					c-0.61,0.517-3.517,2.789-4.324,3.414c-2.314,1.793-4.831,5.034-7.562,6.088c-1.083,0.418-2.988-2.623-3.989-0.099
					c-1.609-0.463-2.828,0.263-2.905,1.944c-1.803,0.006-4.077,1.381-5.086,2.924c-1.012,1.547,0.714,3.257-0.532,4.673
					c-4.54,5.158-14.339,9.746-13.842,12.622c0.632,3.65,7.459-4.144,12.294-7.112c0.503-0.309,1.704-1.644,2.299-1.517
					c0.662,0.142,2.004,3.493,2.135,4.159c0.228,1.165-1.145,2.982-1.528,4.083c-1.3,3.733-2.727,7.469-3.761,11.277
					c-1.089,4.011-1.12,8.563-2.592,12.444c-0.745,1.965-2.327,3.543-3.26,5.443c-3.983,8.111-4.842,15.213-4.334,20.999
					c0.054,0.61,0.776,1.02,0.765,1.556c-0.012,0.583-1.09,0.731-1.259,1.373c-0.219,0.83,0.425,1.544,0.411,2.321
					c-0.052,2.988-1.363,6.516,0.47,9.333c1.318,2.027,6.749-0.649,7.554-2.238c0.433-0.854-0.181-1.695-0.518-2.429
					c-1.029-2.24-2.81-3.443-4.712-4.905c-0.543-0.418-0.937-2.36-0.439-2.947c0.433-0.511,1.268-0.122,1.796-0.012
					c1.379,0.287,10.565,0.521,18.205-2.376c1.333-0.505,3.724-1.104,4.454-2.396c-4.143,0.194-7.84,3.027-12.201,2.333
					c0.067,0.012,3.114-3.078,3.114-3.078c1.371-1.734,5.859-7.034,6.873-8.977c0.712-1.364,1.412-3.683,2.555-4.744
					c0.67-0.622,2.451-0.366,3.339-0.545c10.024-2.016,5.707-6.425,9.684-7.415c2.712-0.675,4.561,3.686,0.969,5.319
					c-1.073,0.488-2.178-0.075-3.293,0.595c-4.017,2.413-6.123,10.436-5.229,11.532c0.733,0.898,4.309-0.278,5.229-0.593
					c2.357-0.807,5.498-1.79,7.249-3.671c0.601-0.646,0.497-1.626,0.777-2.421c1.764-5.001,7.922-1.672,4.737,1.75
					c-2.704,2.902-5.108-2.699-7.985,11.666c-0.146,0.727-0.516,2.768,0.182,3.306c1.039,0.802,6.384-1.774,7.904-2.703
					c1.752-1.071,3.058-2.353,4.568-3.714c-2.324,4.412-4.264,9.068-6.331,13.61c-0.734,1.612-1.373,4.547-2.675,5.754
					c-1.733,1.607-6.752-4.514-8.23-2.191c-1.163,1.827,2.898,4.354,3.873,5.382c-3.277-0.142-11.376-1.679-12.976-0.039
					c-0.769,0.787-0.105,1.54,0.774,1.734c2.376,0.526,5.132,0.979,7.553,1.221c0,0.779-4.068,0.121-6.197,0.504
					c-3.139,0.563-2.668,2.477-0.388,2.765c2.579,0.324,5.35,0.229,7.941,0.229c0,0.966,0.582-0.295-7.554,1.705
					c-0.774,0.19-2.547,0.755-1.625,1.881c1.51,1.846,7.571-0.405,10.921-0.475c-1.245,1.645-3.764,2.066-5.229,3.694
					c-2.497,2.776,1.974,1.676,3.292,0.972c-1.126,3.328-3.738,7.668-3.583,8.75c0.094,0.657,0.678,0.389,0.963,0
					c0.622-1.005,1.021-2.236,1.458-3.307h0.194c0.242-1.623,1.476-5.348,2.904-6.223c-3.012,6.914-2.625,6.223-2.904,6.223
					l-0.388,1.945c1.076-0.176,1.949-1.91,2.585-3.58c-0.206,0.642-0.272,1.197,0.041,1.406c0.477,0.318,0.863-0.633,0.998-0.937
					c0.652-1.472,1.411-2.952,1.992-4.474h0.194c1.291-2.854,1.226-2.853,0.193,0c-0.271,0,0.006-0.628-1.55,4.278
					c2.229-0.664,2.415-4.989,3.874-6.612l0.193-0.583c0,0.699,0.065,0.583-0.193,0.583l-1.937,5.252
					c1.549-0.127,2.268-2.918,2.711-4.277c0.275,0,0.336-0.488-0.774,3.305c1.402-0.229,1.974-2.27,2.324-3.5h0.193
					c1.293-2.599,1.226-2.591,0.193-0.002c-0.275,0.003-0.109-0.364-0.774,2.53c1.259-0.194,1.582-1.64,1.937-2.724h0.193
					c0.638-1.281,1.001-2.034,1.118-2.258l0.02-0.005c-0.083,0.213-0.401,0.955-0.943,2.263h-0.194
					c-0.722,2.334,0.775,1.434,1.356-0.193c0.271,0,0.076,0.236,0.968-1.558c-0.669,1.791-0.504,1.555-0.774,1.558v1.167
					c1.222-0.194,1.55-1.472,1.937-2.528c0.259,0,0.131,0.127,0.581-0.779c-0.231,0.934-0.128,0.779-0.387,0.779l-0.194,1.75
					c1.069-0.185,1.323-1.166,1.55-2.139c0.265,0,0.093,0.238,0.924-1.646c-0.623,1.886-0.465,1.644-0.73,1.646l-0.193,1.361
					c1.243-0.1,1.625-1.244,1.937-2.334c0.258,0,0.099,0.19,0.774-1.168c-0.452,1.366-0.323,1.168-0.581,1.168l-0.193,1.751
					c0.943-0.169,1.212-1.122,1.55-1.944c0.24,0,0.151,0.124,0.501-0.771l0.036,0.021c-0.169,0.884-0.104,0.746-0.344,0.749v1.166
					c1.162-0.192,1.493-1.273,1.743-2.333h0.193c-0.451,2.592,0.934,0.468,1.78,0.117c0.774-0.321,2.014-0.204,2.868-0.312
					c0,8.085-0.646,15.654,1.899,23.526c0.321,0.994,0.91,1.903,1.162,2.917c0.36,1.446-0.569,3.528,1.584,3.694
					c-0.137,3.237-0.258,6.369,1.857,9.138c1.492,1.952,5.692-0.33,6.597-1.944c1.664-2.969-1.509-5.648-3.806-7.26
					c-0.814-0.571-2.954-1.857-2.454-3.198c0.521-1.402,2.564-1.114,7.674-5.929c7.326-6.905,14.73-21.933,14.73-34.553
					c0-5.122,0.12-6.775-0.738-6.611c-0.913,0.174,0.052,1.499-0.834,7.778c-2.222,15.759-5.521,16.922-7.916,23.332
					c-0.791,0,4.192-9.95,1.124-25.082c-0.7-3.453-2.838-7.669-3.682-7.973c-0.561-0.202-1.235,0.048-8.483,3.109
					c0,0.257,0.116,0.192-0.581,0.192l0.581-0.192c1.736-1.497,6.04-4.383,5.986-6.996c-0.032-1.557-1.525-2.723-1.299-4.474
					c0.151-1.167,1.443-2.34,2.67-2.234c0.473,0.04,0.849,0.31,1.217,0.588c2.609,1.976-0.187,3.599-0.192,5.728
					c-0.005,1.952,1.12,4.67,2.065,6.358c0.599,1.069,1.989,4.104,3.602,3.447c0.864-0.353,1.329-1.632,1.701-2.409
					c1.027-2.144,2.409-4.73,2.008-7.202c-0.272-1.68-3.052-3.675-0.209-5.055c0.952-0.462,1.921,0.441,2.074,1.36
					c0.371,2.223-3.902,4.338,3.891,10.449c0.695,0.546,4.849,3.265,5.377,1.367c0.405-1.452-6.203-11.713-7.695-20.177
					c-0.871-4.944,0.528-10.596-6.097-14.937c-1.007-0.66-2.425-1.103-3.209-2.053c-0.579-0.702,0.041-1.665,0.095-2.454
					c0.143-2.092-0.623-4.08,0.329-6.17c0.34-0.747,1.77-1.311,2.402-1.802c1.321-1.026,2.358-2.207,4.066-2.431
					c2.836-0.371,5.586,3.175,5.811,5.735c-8.768,0.02-3.128,11.549,2.09,6.835c1.788-1.615,0.342-3.235,0.571-5.085
					c0.093-0.752,0.78-1.289,1.105-1.944c2.694-5.43-1.736-9.04-1.584-13.026c0.141-3.681,4.892-7.067,6.473-10.306
					C1975.296,798.349,1975.642,792.442,1973.798,787.704z M1903.423,795.738c-2.368,0.723-3.917-2.983-1.542-3.675
					C1904.592,791.273,1906.06,794.933,1903.423,795.738z M1911.532,801.453c-2.874,0.63-3.539-3.229-0.742-3.936
					C1913.646,796.796,1913.757,800.965,1911.532,801.453z M1921.037,804.054c-2.625,1.104-4.113-2.854-1.726-3.792
					C1921.868,799.258,1923.231,803.132,1921.037,804.054z M1888.131,768.8c-2.561,0.362-3.098-3.634-0.581-3.963
					C1889.906,764.529,1890.528,768.461,1888.131,768.8z M1927.035,764.825c0.521-0.792,2.841-1.887,3.465-0.828
					c2.052,3.482-2.301,7.797-5.38,8.176c-0.967,0.119-2.71,0.914-3.097-0.414c1.913-0.194,4.202-2.466,4.731-4.277
					C1926.982,766.702,1926.567,765.535,1927.035,764.825z M1921.635,768.969c-0.069,0.07-0.372,0.233-0.498,0.185
					s-0.3-1.415-0.3-1.415S1921.705,768.898,1921.635,768.969z M1920.667,768.064c-0.065,0.593,0.196,1.778,1.056,1.083
					c0.355-0.287-1.391-2.061-0.358-3.104c0.581-0.586,1.511-0.052,2.208-0.151c0.668-0.096,1.356-0.892,2.068-0.614
					c2.111,0.824-1.812,6.805-4.974,6.231C1918.486,771.114,1919.302,768.886,1920.667,768.064z M1913.502,773.316
					c0.229-1.287,1.836-0.004,2.307-0.832c0.44-0.776-1.096-2.361,0.404-2.719c2.264-0.54,4.24,4.148,3.536,5.882
					c-0.595,1.465-1.563,0.286-2.567,0.534c-0.582,0.144-0.775,0.834-1.367,0.949c-0.376,0.073-0.8-0.108-0.812-0.51
					c-0.023-0.82,1.265-1.073,0.926-1.938C1915.571,773.771,1913.308,774.405,1913.502,773.316z M1892.585,779.491
					c-2.38,0.382-3.242-3.125-0.774-3.583C1894.299,775.446,1895.331,779.051,1892.585,779.491z M1903.43,782.596
					c0.969-0.288,1.272,1.419,0.36,1.654C1902.759,784.517,1902.447,782.889,1903.43,782.596z M1871.976,871.504
					c-0.208,1.256-1.232,0.641-1.95,1.114c-0.396,0.261-0.554,0.783-0.977,1.024c-2.503,1.428-3.627-4.645-1.773-5.52
					C1868.75,867.427,1872.247,869.873,1871.976,871.504z M1897.814,786.825c1.861-0.352,1.515,1.92-0.194,2.18
					C1895.748,789.289,1896.449,787.083,1897.814,786.825z M1893.166,792.175c-0.144,0.803-0.595,0.901-1.355,0.972
					C1891.952,792.299,1892.358,792.201,1893.166,792.175z M1888.769,790.951c1.667-0.602,2.305,4.527,1.071,4.738
					C1888.771,795.873,1887.548,791.391,1888.769,790.951z M1885.756,792.228c0.805-1.67,1.921,0.91,1.979,3.057
					c0.021,0.778,0.008,1.558,0.008,2.333C1886.193,797.358,1885.1,793.589,1885.756,792.228z M1883.362,793.681
					c0.617-0.183,0.942,0.565,1.081,1.021c1.776,5.803-0.345,6.078-1.075,4.277C1883.002,798.077,1881.91,794.112,1883.362,793.681z
					 M1880.384,795.923c0.774-1.221,1.549,0.378,1.685,1.112c0.283,2.487,0.209,2.879,0.059,3.694
					C1880.771,800.282,1879.554,797.229,1880.384,795.923z M1866.439,813.062c-1.088,0.103-0.799-1.455,0.193-1.519
					C1867.906,811.462,1867.472,812.965,1866.439,813.062z M1873.992,807.645c-1.891,1.559-2.392,1.769-3.485,2.611
					c-2.21-1.411,1.851-4.579,3.485-4.962C1876.091,804.802,1874.605,807.139,1873.992,807.645z M1878.288,804.229
					c-0.614,0-1.38-0.871-1.083-1.456c0.317-0.625,2.366-2.521,3.023-2.627c0.688-0.111,1.122,0.822,0.932,1.368
					C1880.9,802.407,1879.257,804.155,1878.288,804.229z M1881.457,805.007c-0.222-0.579-0.678-1.263-0.589-1.911
					c0.091-0.664,1.547-2.232,2.227-2.249c0.577-0.014,0.93,0.505,1.54,0.287c1.022-0.365,0.786-1.55,1.41-2.23
					c0.988-1.078,2.159-0.159,2.473-2.259c3.382,0.406,4.195-4.47,7.747-4.859c-0.524,1.75-2.705,2.479-3.819,3.729
					c-1.29,1.446-1.687,3.75-2.959,5.353c-0.712,0.898-2.413,1.348-2.921,2.104c-0.368,0.547,0.788,0.791,1.062,1.063
					c0.589,0.587,0.316,1.888-0.188,2.417c-0.705,0.74-3.764,2.055-4.674,1.351C1881.995,807.206,1881.787,805.867,1881.457,805.007
					z M1876.436,840.853c0.587-0.564,1.94-0.38,2.086,0.524c0.342,2.126-1.484,0.38-5.134,14.96
					c-0.268,1.068-1.221,2.288-2.301,1.944C1870.087,857.963,1874.007,843.191,1876.436,840.853z M1880.472,860.726
					c-2.274,1.949-4.667,2.806-7.643,2.806c-0.613,0-2.313,0.291-2.583-0.449c-0.325-0.892,6.241-6.306,8.279-8.495
					c7.789-8.368,12.107-20.731,12.122-26.054c0.763,0.002,4.553,2.113,4.251,6.012
					C1892.091,845.708,1887.318,854.857,1880.472,860.726z M1894.135,828.728c1.16,0.316,2.094,1.617,3.292,1.75
					c1.936,0.215,3.879-2.132,5.894-0.049c0.573,0.593,0.353,1.538,0.002,2.188c-1.531,2.832-3.571,0.836-5.508,2.176
					c-1.095,0.758-1.475,2.49-2.712,2.879l0.969-5.833L1894.135,828.728z M1921.419,855.366c-0.705-5.17,7.071-4.479,5.252-0.39
					c-0.518,1.165-2.638,2.35-3.873,2.592C1921.736,857.776,1921.525,856.143,1921.419,855.366z M1920.28,880.837
					c-0.9-0.749-0.951-0.693-0.193-0.389c4.097-8.866,2.994-6.633,5.035-10.306L1920.28,880.837z M1926.671,869.754
					c-0.832,3.906-3.522,8.05-5.229,11.666c-0.275,0-0.655,1.037,3.605-8.555L1926.671,869.754z M1920.667,875.942
					c3-6.928,2.556-5.994,3.1-5.994C1920.003,878.133,1917.059,884.274,1920.667,875.942z M1918.537,874.225
					c4.388-8.746,3.124-8.166,4.067-8.166c-4.228,9.898-2.763,6.622-5.811,13.027C1916.6,877.594,1917.879,875.536,1918.537,874.225
					z M1915.245,878.698c5.731-13.346,4.1-9.553,7.359-17.11C1922.604,861.588,1917.885,876.962,1915.245,878.698z
					 M1922.798,868.198c-0.144,2.762-2.404,6.064-3.573,8.556C1915.408,884.886,1919.196,872.98,1922.798,868.198z M1922.604,859.06
					c-3.339,8.324-1.478,3.966-8.521,19.832C1912.957,878.892,1919.958,862.347,1922.604,859.06z M1907.303,896.392h-0.193
					c-0.093,0.353-0.527,1.184-0.862,2.009c0.805-2.282,0.548-2.009,0.862-2.009
					C1908.904,892.789,1908.865,892.734,1907.303,896.392z M1913.114,893.28c-0.256,0-0.264,0.277,0.181-1.506
					c0.114-0.019,0.231-0.037,0.341-0.056C1913.738,891.761,1913.582,892.028,1913.114,893.28z M1918.925,890.558
					c-0.81,1.084-0.744,1.049,0-0.194V890.558z M1920.087,890.753c-0.255,0-0.301,0.205,0.333-1.061l0.018-0.001L1920.087,890.753z
					 M1922.604,883.947c-0.808,0.928-0.473,3.041-1.278,3.694c-2.497,2.023-6.997,1.932-9.955,3.02
					c-3.212,1.181-5.827,4.023-9.296,4.563c1.121-2.139,5.473-2.107,6.052-4.658c0.598-2.638-7.487,0.807-11.862-0.008
					c0-0.278-1.215,0.072,10.652-2.527c-0.68-2.14-2.395-1.407-4.075-1.361c-4.203,0.114-7.158-0.339-7.158-0.778
					c3.717-1.584,9.562-0.083,10.458-1.279c0.72-0.961-1.685-1.223-2.13-1.362c-2.542-0.8-5.462-1.247-8.135-1.247
					c0.378-1.079,1.587-0.659,2.519-0.729c4.006-0.297,10.799,2.089,11.031-0.243c0.147-1.472-4.07-2.432-4.253-4.861l6.778,3.306
					c7.902,1.867,5.53,0.85,10.652,4.277V883.947z M1922.41,882.198c4.919-11.213,9.664-21.154,4.623-9.723
					C1922.253,883.316,1922.691,882.198,1922.41,882.198z M1924.153,881.614c-0.193-1.433,1.156-3.384,1.792-4.666
					c2.377-4.792,5.186-11.835,6.343-12.833C1923.741,882.95,1924.454,881.614,1924.153,881.614z M1925.896,881.225
					c-0.448-1.573,5.37-11.098,8.271-19.055c0.567-1.556-1.094-3.286-0.565-5.056c0.479-1.606,2.496-2.73,4.052-1.888
					c1.604,0.869,1.3,2.865,0.209,4.025c-0.764,0.812-2.008,1.065-2.671,1.98C1933.637,863.379,1929.53,874.607,1925.896,881.225z
					 M1927.639,880.837h-0.193c0.678-3.824,3.364-7.938,4.976-11.472c0.96-2.105,1.679-4.816,3.158-6.611
					C1933,869.365,1934.709,865.437,1927.639,880.837z M1928.995,880.448c5.165-11.667,3.662-8.41,6.778-14.777
					c-0.387,3.562-3.23,7.825-4.708,11.083C1930.537,877.919,1930.082,879.734,1928.995,880.448z M1930.752,880.336
					c0.144-2.548,2.063-4.023,5.216-13.109c0.551,3.036-4.059,8.603-4.842,13.027l0.021-0.002
					C1930.982,880.294,1930.853,880.322,1930.752,880.336z M1932.495,879.879l-0.018,0.007L1932.495,879.879z M1932.288,879.864
					c0.473-3.208,2.829-7.314,4.454-10.11c0,0,0.176,0.142,0.411,0.316c-0.011,0.026-0.02,0.047-0.029,0.072h-0.188
					C1932.04,880.828,1932.568,879.864,1932.288,879.864z M1939.066,919.156c0.732,0.129,3.908,2.804,3.451,3.552
					c-0.435,0.71-1.991,0.118-4.032,2.46C1937.323,924.124,1936.16,918.644,1939.066,919.156z M1941.954,906.502
					c2.421-6.216,4.382-12.945,4.842-19.638c0.757-11.008-3.544-11.354-3.93-15.551c-0.129-1.404,3.482-2.132,4.528-2.04
					c1.309,0.114,1.599,1.791,1.915,2.813c0.931,3.01,1.492,6.027,1.818,9.139c0.794,7.583-3.906,21.588-4.437,22.943
					c-0.531,1.355-4.474,7.603-8.594,9.527C1938.543,911.232,1941.009,908.928,1941.954,906.502z M1966.047,812.399
					c-0.683,4.427,4.013,8.128,1.629,13.61c-0.28,0.645-0.943,1.022-1.06,1.754c-0.308,1.94,1.069,3.8-1.042,5.324
					c-2.153,1.555-5.529-0.857-4.929-3.384c0.222-0.932,0.926-1.985,1.855-2.288c0.845-0.275,4.05-0.037,1.72-3.934
					c-1.351-2.26-3.423-3.922-6.175-3.545c-1.226,0.168-2.156,1.122-3.099,1.842c-0.965,0.738-2.424,1.429-3.174,2.364
					c-1.428,1.781-0.711,4.591-0.703,6.535c0.004,0.915-0.706,2.038-0.439,2.916c0.387,1.272,2.688,2.076,3.737,2.723
					c7.509,4.633,5.238,12.264,6.955,18.276c1.932,6.77,6.359,14.423,6.794,15.938c-3.68-0.713-7.779-3.768-8.756-7.582
					c-0.548-2.14,2.44-4.924-0.928-6.313c-1.646-0.68-2.988,1.65-2.986,3.008c0.002,1.421,1.177,2.051,1.519,3.306
					c0.536,1.967-1.229,4.937-2.098,6.61c-0.304,0.586-0.708,1.656-1.47,1.766c-1.624,0.232-4.551-7.125-4.395-8.766
					c0.083-0.869,0.779-1.511,1.005-2.333c0.555-2.023-0.188-4.082-2.228-4.832c-1.431-0.525-3.277,0.762-3.72,2.112
					c-0.711,2.172,1.243,3.608,0.972,5.444c-0.402,2.722-4.844,5.341-6.741,6.999h-0.194c-1.694-1.519-1.532-3.696-1.824-5.833
					c-0.106-0.778-0.379-2.098,0.081-2.802c1.097-1.68,3.487-1.925,3.008-4.587c-0.51-2.825-3.974-3.192-5.642-1.158
					c-1.623,1.98,0.101,4.011-0.794,6.02c-1.448,3.251-4.897,5.718-7.416,7.972c0,0-0.981-0.008-1.173-0.202
					c-1.292-1.306-1.468-4.331-1.288-6.02c0.152-1.429-0.34-3.696,0.256-5.001c0.506-1.107,2.784-1.41,3.656-2.331
					c1.968-2.079-0.492-5.453-3-5.069c-1.895,0.29-3.41,2.349-3.256,4.236c0.072,0.887,0.772,1.981,0.268,2.817
					c-2.138,3.538-7.718,5.601-11.537,6.321c0-3.5,1.11-9.481,3.78-11.992c1.42-1.336,3.612-0.19,4.935-2.396
					c2.558-4.265-4.891-8.215-6.583-1.944c-0.157,0.58,0.009,1.367-0.327,1.821c-1.441,1.946-4.706,2.739-6.838,3.541
					c-0.813,0.306-3.999,1.399-4.648,0.548c-0.641-0.84,0.563-2.954,0.879-3.77c3.811-9.833,6.917-4.669,9.051-7.972
					c1.701-2.632-0.478-6.556-3.732-5.433c-2.517,0.869-1.934,3.238-3.376,4.758c-2.333,2.459-6.643,2.813-9.794,2.813
					c0.364-2.917,3.353-7.483,5.844-9.021c0.806-0.497,1.638-0.017,2.484-0.21c1.744-0.398,3.284-2.57,2.824-4.372
					c-0.438-1.717-2.893-2.349-4.373-1.756c-0.59,0.236-1.101,0.916-1.743,0.985c-0.661,0.071-1.158-0.736-1.567-1.126
					c-1.082-1.031-2.839-1.977-3.081-3.556c2.811,0,5.426,0.008,8.109-0.973c4.354-1.591,8.691-4.627,13.389-5.213
					c3.184-0.397,4.967,2.491,7.94,2.491c-0.014-0.661-0.268-1.499-0.043-2.131c0.783-2.198,4.096-1.099,5.155-2.536
					c0.548-0.742,0.158-1.729,0.477-2.527c0.419-1.05,1.584-1.399,2.074-2.333c0.738-1.404,0.668-3.205,1.313-4.667
					c0.996-2.256,3.036-4.47,3.707-6.805c0.447-1.555-1.178-3.38-1.645-4.861c-0.961-3.047-0.701-6.14,0.906-8.943
					c1.427-2.488,3.42-2.32,5.48-3.644c1.604-1.03,2.572-4.227,5.231-2.878c2.049,1.039,2.092,4.444,0,5.488
					c-1.809,0.902-2.901-0.816-4.454-0.521c-2.773,0.529-1.16,6.051-0.07,7.328c1.711,2.005,5.261-0.487,9.947-0.879
					c2.324-0.194,4.07,1.314,6.197,1.818c4.494,1.066,11.772-0.875,12.977-5.937c0.196-0.824,0.585-2.143-0.085-2.833
					c-0.601-0.62-1.482-0.387-2.239-0.54c-1.558-0.314-2.731-1.846-2.454-3.434c0.476-2.723,4.117-3.613,5.671-1.361
					c1.107,1.605-0.344,3.063,0.045,4.666c0.317,1.309,2.232,1.659,3.234,7.389c0.859,4.917-0.42,9.722-3.221,13.805
					C1969.244,807.492,1966.496,809.489,1966.047,812.399z"/>
				<path fill="#E6180A" d="M1943.697,880.254c0.112,1.262,0.645,4.566-0.453,5.471c-0.959,0.79-3.02,0.426-4.195,0.58
					c-3.593,0.471-7.393,0.661-11.021,0.756c-1.104,0.028-2.768,0.59-3.812,0.074c-1.451-0.717,0.325-3.416,1.293-3.755
					c3.544-1.242,7.601-1.354,11.233-2.521C1939.528,879.964,1943.413,877.042,1943.697,880.254z"/>
				<path fill="#FFFFFF" d="M1939.539,904.946c-0.176,1.589-1.333,2.94-1.635,4.473c-0.969-0.584-0.786-2.817-0.912-3.889
					c-0.478-4.053-0.25-8.167-0.25-12.25c0-0.972-0.216-4.189,0.833-4.666c2.083-0.947,1.073,3.965,1.186,4.86
					c0.292,2.334-0.054,4.674,0.112,7C1938.975,901.914,1939.697,903.515,1939.539,904.946z"/>
				<path fill="#FFFFFF" d="M1941.971,873.642c1.15,2.164-0.388,3.804-2.518,4.083
					C1939.618,876.116,1940.615,874.521,1941.971,873.642z"/>
				<path fill="#E6180A" d="M1876.483,831.256c0.775-5.405,2.406-10.692,3.871-15.943c0.808-2.895,1.569-6.741,5.064-7.324
					c3.025-0.505,1.925,4.222,1.71,6.157c-0.34,3.058-0.55,6.07-0.759,9.139c-0.072,1.06-0.556,2.266-0.467,3.306
					c0.15,1.748,1.554,1.622,2.109,2.782c0.709,1.48-0.974,10.624-3.581,11.349c-0.896,0.249-1.852-0.196-2.694-0.438
					c-2.134-0.61-5.608-1.033-5.941-3.777C1875.598,834.881,1876.251,832.875,1876.483,831.256z"/>
			</g>
		</g>
	</g>
	<path id="path70" fill="#E6180A" d="M-138.273,175.606c-1.87,4.103,1.908,9.444,1.934,13.383c2.992-2.547,9.478-3.157,11.369-7.25
		c0.892-1.929,0.11-4.192-1.721-5.031c-1.841-0.843-4.052,0.03-4.931,1.965c0.883-1.943,0.109-4.188-1.721-5.031
		C-135.181,172.794-137.392,173.672-138.273,175.606z"/>
	<path id="path67" fill="#E6180A" d="M-121.995,201.05c-2.351,0.621-4.701,1.241-7.052,1.862c0.794-0.249,1.344-0.963,1.879-1.574
		c1.168-1.506,2.235-3.14,2.898-4.941c0.326-0.884,0.623-1.88,0.399-2.83L-121.995,201.05z M-129.046,202.913
		c1.027-0.236,2.073,0.18,2.995,0.608c1.687,0.785,3.21,1.914,4.595,3.173c0.526,0.533,1.127,1.087,1.338,1.84
		c-0.626-2.494-1.251-4.988-1.876-7.483L-129.046,202.913z M-120.119,208.534c-0.245-1.123,0.156-2.271,0.583-3.289
		c0.725-1.73,1.759-3.324,2.946-4.76c0.474-0.51,0.965-1.098,1.646-1.297c-2.351,0.621-4.701,1.242-7.052,1.862L-120.119,208.534z
		 M-114.943,199.188c-1.027,0.236-2.074-0.179-2.995-0.607c-1.687-0.784-3.21-1.915-4.595-3.173
		c-0.526-0.533-1.126-1.088-1.337-1.841c0.625,2.495,1.25,4.988,1.875,7.483L-114.943,199.188z"/>
	<path d="M-95.645,203.521c-1.475-0.819-2.29-0.189-3.677-0.122c1.99-1.771,3.21-0.97,4.214-2.788
		c2.009-3.639-3.634-6.778-5.643-3.141c-0.996,1.803,0.332,2.521-0.086,5.126c-0.197-0.341-0.366-0.713-0.486-1.116
		c-0.777-2.729-4.527-3.272-5.9-0.786c-1.379,2.496,1.071,5.382,3.863,4.571c0.558-0.162,1.116-0.199,1.638-0.182
		c-0.583,0.886-2.881,4.038-5.293,2.705l6.569,3.656c-1.962-1.094-1.474-3.839-0.549-5.897c0.938,1.438,0.719,2.585,2.314,3.472
		C-94.948,211.097-91.913,205.6-95.645,203.521z"/>
	<path d="M-116.877,156.773c-0.921-3.192-6.368-4.128-8.495-6.244c-0.676,2.937-4.792,6.64-3.882,9.826
		c0.768,2.69,5.03,2.608,6.096-0.104c0.307,2.012,0.466,5.313-1.635,5.921l7.206-2.085c-2.077,0.601-3.699-2.192-4.555-4.188
		C-119.82,161.695-116.09,159.499-116.877,156.773z M-123.065,158.567L-123.065,158.567L-123.065,158.567z"/>
</g>
</svg>
